static_grf.mot
version=1
nRows=30
nColumns 19
inDegrees=yes
endheader
time	1_ground_force_vx	1_ground_force_vy	1_ground_force_vz	1_ground_force_px	1_ground_force_py	1_ground_force_pz	1_ground_torque_x	1_ground_torque_y	1_ground_torque_z	2_ground_force_vx	2_ground_force_vy	2_ground_force_vz	2_ground_force_px	2_ground_force_py	2_ground_force_pz	2_ground_torque_x	2_ground_torque_y	2_ground_torque_z
            1.449000	            1.839071	          335.157740	           -8.701998	           -0.243105	            0.006340	           -0.432979	            0.004089	            0.745213	           -0.019349	           -4.693201	          289.062671	           11.404248	           -0.237613	            0.005508	           -0.664801	            0.021731	           -1.338436	           -0.052805
            1.449500	            1.838223	          336.060217	           -8.973269	           -0.243189	            0.006339	           -0.432816	            0.004043	            0.739188	           -0.019737	           -4.647680	          289.431182	           11.405542	           -0.237932	            0.005508	           -0.665081	            0.021386	           -1.331774	           -0.052481
            1.450000	            1.838876	          334.977837	           -8.794483	           -0.243058	            0.006342	           -0.433424	            0.003895	            0.709479	           -0.018627	           -4.742627	          289.798456	           11.594608	           -0.238375	            0.005507	           -0.665293	            0.022107	           -1.350858	           -0.054047
            1.450500	            2.068088	          336.239378	           -8.697929	           -0.243211	            0.006338	           -0.432573	            0.004608	            0.749243	           -0.019382	           -4.876613	          287.957150	           11.400385	           -0.237967	            0.005507	           -0.664674	            0.021705	           -1.281628	           -0.050740
            1.451000	            1.976291	          334.978060	           -8.840680	           -0.243590	            0.006342	           -0.433425	            0.004911	            0.832375	           -0.021968	           -4.596219	          288.142640	           11.307067	           -0.237957	            0.005508	           -0.664914	            0.021506	           -1.348241	           -0.052907
            1.451500	            2.068253	          335.338019	           -8.701794	           -0.243293	            0.006342	           -0.433497	            0.004809	            0.779773	           -0.020235	           -4.643028	          288.142136	           11.400943	           -0.238153	            0.005506	           -0.664588	            0.021468	           -1.332283	           -0.052715
            1.452000	            1.975654	          336.601071	           -8.971291	           -0.243158	            0.006339	           -0.432753	            0.004262	            0.726203	           -0.019355	           -4.599501	          289.063009	           11.404208	           -0.237809	            0.005508	           -0.664802	            0.021130	           -1.327953	           -0.052391
            1.452500	            1.792449	          334.438241	           -9.071823	           -0.243300	            0.006342	           -0.433466	            0.003935	            0.734291	           -0.019918	           -4.784886	          288.509743	           11.449245	           -0.238085	            0.005507	           -0.664998	            0.021406	           -1.290725	           -0.051221
            1.453000	            2.022149	          335.518700	           -8.792619	           -0.243352	            0.006341	           -0.433190	            0.004433	            0.735479	           -0.019274	           -5.021130	          289.061319	           11.451315	           -0.238336	            0.005507	           -0.665123	            0.022281	           -1.282681	           -0.050814
            1.453500	            2.159418	          335.699355	           -8.883899	           -0.243211	            0.006339	           -0.432881	            0.005119	            0.795719	           -0.021058	           -4.505096	          288.878872	           11.497367	           -0.238203	            0.005508	           -0.665281	            0.020760	           -1.331165	           -0.052980
            1.454000	            1.793246	          334.436865	           -8.750832	           -0.243641	            0.006341	           -0.433369	            0.003789	            0.706704	           -0.018492	           -4.740715	          289.246642	           11.404925	           -0.237937	            0.005508	           -0.665103	            0.021726	           -1.325553	           -0.052266
            1.454500	            1.884363	          334.437866	           -8.980339	           -0.243288	            0.006343	           -0.433734	            0.004227	            0.750151	           -0.020143	           -4.742065	          289.615152	           11.359311	           -0.238186	            0.005508	           -0.665250	            0.022370	           -1.366208	           -0.053586
            1.455000	            2.022296	          335.338207	           -8.747536	           -0.242965	            0.006340	           -0.433057	            0.004463	            0.740045	           -0.019305	           -4.880600	          289.061994	           11.404327	           -0.238075	            0.005508	           -0.665124	            0.021847	           -1.293926	           -0.051049
            1.455500	            1.839071	          335.157740	           -8.701998	           -0.243331	            0.006340	           -0.432979	            0.004000	            0.729013	           -0.018928	           -4.833709	          289.061828	           11.498164	           -0.238070	            0.005508	           -0.665124	            0.022093	           -1.321217	           -0.052555
            1.456000	            1.839038	          335.337975	           -8.701225	           -0.243157	            0.006341	           -0.433164	            0.004041	            0.736847	           -0.019119	           -4.693180	          289.062503	           11.451176	           -0.237940	            0.005509	           -0.665256	            0.021510	           -1.324855	           -0.052484
            1.456500	            1.839152	          335.337778	           -8.655369	           -0.243214	            0.006341	           -0.433158	            0.003991	            0.727725	           -0.018783	           -4.695798	          289.798792	           11.547660	           -0.237859	            0.005509	           -0.665230	            0.021461	           -1.324450	           -0.052776
            1.457000	            1.884668	          335.879008	           -8.744876	           -0.243138	            0.006340	           -0.433107	            0.003974	            0.708174	           -0.018438	           -4.741318	          289.430342	           11.546366	           -0.237796	            0.005510	           -0.665338	            0.022337	           -1.363549	           -0.054397
            1.457500	            1.976016	          334.618118	           -8.979794	           -0.243385	            0.006343	           -0.433637	            0.004313	            0.730373	           -0.019600	           -4.508460	          289.799971	           11.406796	           -0.238051	            0.005509	           -0.665426	            0.021272	           -1.367343	           -0.053820
            1.458000	            1.701443	          335.698480	           -8.699338	           -0.243224	            0.006339	           -0.432918	            0.003471	            0.684860	           -0.017748	           -4.412725	          289.247492	           11.498641	           -0.238120	            0.005508	           -0.665104	            0.021536	           -1.411638	           -0.056118
            1.458500	            1.976420	          335.518494	           -8.746649	           -0.243468	            0.006341	           -0.433184	            0.004506	            0.764999	           -0.019943	           -4.600104	          289.246648	           11.545649	           -0.237999	            0.005509	           -0.665299	            0.021192	           -1.332493	           -0.053188
            1.459000	            1.976861	          334.977077	           -8.611400	           -0.243598	            0.006339	           -0.432893	            0.004402	            0.745853	           -0.019174	           -4.553336	          289.247486	           11.357917	           -0.237999	            0.005509	           -0.665364	            0.021384	           -1.358429	           -0.053342
            1.459500	            1.839053	          335.878606	           -8.653050	           -0.243422	            0.006338	           -0.432480	            0.003888	            0.710048	           -0.018293	           -4.602119	          289.799298	           11.500692	           -0.237917	            0.005510	           -0.665424	            0.022050	           -1.388515	           -0.055103
            1.460000	            1.976501	          335.698533	           -8.700020	           -0.243130	            0.006339	           -0.432916	            0.004260	            0.723590	           -0.018753	           -4.460945	          289.616000	           11.406119	           -0.238182	            0.005508	           -0.665124	            0.021479	           -1.394446	           -0.054918
            1.460500	            2.022524	          335.337814	           -8.655824	           -0.243071	            0.006340	           -0.433044	            0.004911	            0.814174	           -0.021016	           -4.602180	          289.799800	           11.359908	           -0.238122	            0.005509	           -0.665426	            0.021021	           -1.323691	           -0.051888
            1.461000	            1.793033	          334.977828	           -8.794369	           -0.243007	            0.006342	           -0.433424	            0.003801	            0.710030	           -0.018641	           -4.883280	          289.798785	           11.360028	           -0.238320	            0.005508	           -0.665358	            0.022016	           -1.306529	           -0.051216
            1.461500	            1.746978	          335.518843	           -8.837792	           -0.243276	            0.006340	           -0.433142	            0.003765	            0.723026	           -0.019045	           -4.507048	          289.431020	           11.593195	           -0.238056	            0.005509	           -0.665277	            0.021155	           -1.358519	           -0.054416
            1.462000	            1.976974	          334.976880	           -8.565544	           -0.243318	            0.006341	           -0.433280	            0.004442	            0.752622	           -0.019245	           -4.464954	          290.721011	           11.363134	           -0.237910	            0.005510	           -0.665574	            0.020376	           -1.326739	           -0.051857
            1.462500	            1.930562	          334.977855	           -8.794710	           -0.243437	            0.006341	           -0.433254	            0.004204	            0.729377	           -0.019149	           -4.602180	          289.799800	           11.359908	           -0.238122	            0.005509	           -0.665426	            0.021021	           -1.323691	           -0.051888
            1.463000	            2.113787	          335.158383	           -8.840248	           -0.243237	            0.006342	           -0.433555	            0.004800	            0.761124	           -0.020076	           -4.744018	          290.167239	           11.455138	           -0.238178	            0.005508	           -0.665378	            0.021734	           -1.329352	           -0.052480
            1.463500	            2.114012	          336.419426	           -8.651414	           -0.243200	            0.006338	           -0.432471	            0.004754	            0.756600	           -0.019457	           -4.787462	          289.245636	           11.639585	           -0.238129	            0.005507	           -0.665037	            0.021861	           -1.320785	           -0.053150
